<svg id="SvgjsSvg1038" width="288" height="288" xmlns="http://www.w3.org/2000/svg" version="1.1" xmlns:xlink="http://www.w3.org/1999/xlink" xmlns:svgjs="http://svgjs.com/svgjs"><defs id="SvgjsDefs1039"></defs><g id="SvgjsG1040"><svg xmlns="http://www.w3.org/2000/svg" enable-background="new 0 0 512 512" viewBox="0 0 512 512" width="288" height="288"><path d="M505.258,309.246c-4.833-8.068-24.678-32.016-77.156-1.454l-92.869,54.092c-4.781,2.783-9.74,4.737-14.938,5.87
	c1.954-3.022,3.475-6.471,4.503-10.308c4.714-17.596-5.748-35.967-23.818-41.824c-0.343-0.11-0.692-0.198-1.047-0.263
	c-26.707-4.817-53.059-14.344-74.231-21.998c-7.355-2.659-14.303-5.171-20.207-7.085c-23.704-7.691-45.131,1.839-62.967,12.173
	l-69.29,40.145l-5.114-9.037c-2.844-5.025-7.488-8.646-13.077-10.195c-5.589-1.55-11.435-0.836-16.46,2.008l-26.058,14.747
	c-10.4,5.886-14.073,19.137-8.187,29.537l76.606,135.358c2.844,5.025,7.488,8.646,13.078,10.194
	c1.933,0.536,3.896,0.801,5.845,0.801c3.688,0,7.327-0.949,10.614-2.81l26.057-14.747c5.025-2.844,8.646-7.488,10.195-13.077
	c1.55-5.59,0.836-11.436-2.009-16.459l-9.547-16.87l16.043-9.262l119.043,31.898c6.696,1.794,13.269,2.69,19.699,2.69
	c12.821-0.001,25.077-3.562,36.612-10.662l168.535-103.777C510.371,349.539,515.206,325.856,505.258,309.246z M131.317,477.101
	c-0.407,1.471-1.352,2.688-2.657,3.427l-26.057,14.747c-1.306,0.738-2.836,0.923-4.306,0.514c-1.471-0.407-2.688-1.351-3.427-2.656
	L18.265,357.773c-1.541-2.723-0.579-6.191,2.144-7.732l26.058-14.747c0.851-0.48,1.795-0.727,2.757-0.727
	c0.516,0,1.035,0.071,1.549,0.213c1.47,0.408,2.687,1.351,3.425,2.656c0,0,0,0.001,0.001,0.001l76.606,135.359
	C131.543,474.102,131.726,475.63,131.317,477.101z M486.725,345.308L318.19,449.085c-13.425,8.263-28.154,10.33-43.782,6.142
	l-122.244-32.756c-2.049-0.55-4.233-0.263-6.07,0.8l-18.794,10.85L81.117,352.52l69.431-40.227
	c15.527-8.997,32.336-16.532,50.009-10.797c5.652,1.832,12.164,4.187,19.703,6.912c21.591,7.806,48.424,17.506,76.256,22.593
	c9.838,3.427,15.338,12.931,12.826,22.305c-3.058,11.413-12.084,13.57-19.865,13.091c-15.227-2.964-28.915-6.847-43.261-10.915
	c-6.168-1.749-12.546-3.559-19.253-5.355c-4.264-1.14-8.654,1.389-9.798,5.657c-1.144,4.268,1.39,8.654,5.657,9.798
	c6.594,1.767,12.915,3.56,19.027,5.293c13.65,3.871,26.717,7.578,41.188,10.553c0.716,0.323,1.492,0.545,2.313,0.646
	c0.666,0.083,1.326,0.151,1.982,0.206c3.015,0.577,6.098,1.121,9.262,1.628c17.213,2.753,32.486,0.071,46.689-8.197l92.87-54.092
	c26.861-15.644,47.563-17.195,55.377-4.151C496.924,326.472,494.498,340.521,486.725,345.308z M52.614,358.941
	c0.743,5.084-2.776,9.808-7.86,10.551c-5.083,0.743-9.808-2.776-10.551-7.859c-0.743-5.084,2.775-9.808,7.859-10.551
	C47.146,350.338,51.87,353.857,52.614,358.941z M219.047,153.573c-1.068-4.287,1.54-8.629,5.827-9.698
	c4.29-1.069,8.629,1.54,9.698,5.827c2.689,10.791,13.747,14.368,22.426,14.171c7.547-0.18,14.583-2.794,17.927-6.66
	c1.86-2.151,2.549-4.626,2.165-7.788c-0.637-5.243-3.747-11.651-22.302-14.698c-26.283-4.315-32.417-17.924-32.934-28.581
	c-0.717-14.747,9.521-27.087,25.478-30.707c0.221-0.05,0.445-0.092,0.668-0.138v-5.721c0-4.418,3.582-8,8-8s8,3.582,8,8v5.648
	c10.642,2.093,20.892,8.635,26.165,21.194c1.711,4.074-0.205,8.763-4.278,10.473c-4.071,1.71-8.763-0.204-10.474-4.279
	c-4.539-10.809-15.588-13.604-24.542-11.573c-6.565,1.489-13.438,6.035-13.036,14.327c0.139,2.856,0.507,10.442,19.545,13.569
	c21.751,3.571,33.726,13.179,35.593,28.558c0.927,7.634-1.129,14.613-5.946,20.183c-5.178,5.987-13.505,10.119-23.026,11.599v5.462
	c0,4.418-3.582,8-8,8s-8-3.582-8-8v-5.587C233.533,176.527,222.389,166.976,219.047,153.573z M256,226.153
	c54.584,0,98.992-44.408,98.992-98.992S310.584,28.169,256,28.169s-98.992,44.408-98.992,98.992S201.416,226.153,256,226.153z
	 M256,44.169c45.762,0,82.992,37.23,82.992,82.992s-37.23,82.992-82.992,82.992s-82.992-37.23-82.992-82.992
	S210.238,44.169,256,44.169z M256,254.323c70.117,0,127.161-57.044,127.161-127.162C383.161,57.044,326.117,0,256,0
	S128.839,57.044,128.839,127.161C128.839,197.278,185.883,254.323,256,254.323z M256,16c61.295,0,111.161,49.867,111.161,111.161
	c0,61.295-49.866,111.162-111.161,111.162s-111.161-49.867-111.161-111.162C144.839,65.867,194.705,16,256,16z" fill="#ffffff" class="color000 svgShape"></path></svg></g></svg>