<?xml version="1.0" encoding="utf-8"?>
<!-- Generator: Adobe Illustrator 26.0.0, SVG Export Plug-In . SVG Version: 6.00 Build 0)  -->
<svg version="1.1" id="Layer_1" xmlns="http://www.w3.org/2000/svg" xmlns:xlink="http://www.w3.org/1999/xlink" x="0px" y="0px"
	 viewBox="0 0 185 161" style="enable-background:new 0 0 185 161;" xml:space="preserve">
<style type="text/css">
	.st0{opacity:0.23;}
	.st1{fill:#8AA9FC;}
	.st2{fill:#6E3281;}
	.st3{opacity:0.43;}
	.st4{fill:#EDE6F5;}
	.st5{fill:#552E3B;}
	.st6{fill:#B8ABD6;}
	.st7{fill:#DDD2F3;}
	.st8{opacity:0.44;fill:#B8ABD6;}
	.st9{fill:#6338A1;}
	.st10{fill:#F9C8C7;}
	.st11{fill:#452775;}
	.st12{opacity:0.14;fill:#B8ABD6;}
	.st13{fill:#FAC28C;}
	.st14{fill:#DB9D6A;}
	.st15{fill:#B28560;}
	.st16{opacity:7.000000e-02;}
	.st17{fill:#F9FAFD;}
	.st18{fill:#A869C5;}
	.st19{fill:#C7CDDD;}
	.st20{fill:#E08F8D;}
	.st21{opacity:0.26;}
	.st22{fill:#DEECFC;}
	.st23{fill:#635252;}
	.st24{fill:#968ABC;}
	.st25{fill:#D7D1E8;}
	.st26{opacity:0.19;fill:#D7D1E8;}
	.st27{fill:#EDC483;}
	.st28{fill:#E3707F;}
	.st29{fill:#E8947E;}
</style>
<g>
	<g>
		<g class="st0">
			<g>
				<path class="st1" d="M5.8,119.7c2.7-4.7,8.9-8.1,13.6-10.5c4.9-2.5,10.5-3.6,16-3.2c12.4,0.9,20.5,10.8,30.7,16.5
					c11.9,6.6,24.4,5,34.8-3.7c10-8.4,15.1-23.9,27.8-28.8c7.3-2.9,15.6-1.8,22.8,0.8c8.2,3,14.7,9.5,22.8,12.2
					c5.2,1.7,11.1-5.1,7.5-9.8c-4.8-6.3-12.8-10.5-19.9-13.8c-7.6-3.4-15.7-5.7-24-5.5c-7.8,0.2-15.5,2.3-21.8,7
					c-6.4,4.7-10.9,11-15.4,17.4c-3.9,5.5-8.3,11.7-14.7,14.4c-6,2.5-11.8-0.2-16.9-3.5C57.7,101.9,48,93.3,33.5,94.1
					c-7,0.4-14,2.5-20,6.2c-6.6,4.1-9.4,9.7-12.8,16.4C-1,120.1,3.9,123,5.8,119.7L5.8,119.7z"/>
			</g>
		</g>
		<g class="st0">
			<path class="st2" d="M16.5,71.1c-0.9-5.4-2.6-10.3-1.2-15.9c2.9-11,11.8-11.3,21.1-9.9c9.4,1.5,17.9,1.5,25.5-5.2
				C73.6,29.8,73.7,6.6,57.2,1.3c-3.8-1.2-8.3,3.5-6.6,7.2c2.4,5.1,6.5,9.5,5.3,15.3C54,33.5,45.1,33,37.3,31.9
				c-8.8-1.2-16.7-0.6-23.9,5c-11.2,8.7-15,28.8-1.5,37C13.8,75.1,16.9,73.3,16.5,71.1L16.5,71.1z"/>
		</g>
	</g>
	<g>
		<g>
			<g class="st3">
				<path class="st4" d="M30.9,140.5c-4.5-11.5,0.3-25.9,10.8-32.3c6.4-3.9,14-5,20.9-7.9C73,95.7,81,86.8,90.4,80.3
					c7-4.9,14.9-8.5,23.4-9.7c8.4-1.2,17.3,0.1,24.7,4.4c7.8,4.6,13.4,12.4,16.1,21.1c2.7,8.6,2.5,18,0.4,26.8
					c-0.8,3.4-1.9,6.7-3.9,9.5c-2,2.8-4.9,5.1-8.3,5.8"/>
			</g>
			<path class="st4" d="M149.3,136.7c0,0-117.7,2.7-118.4,3.1c0,0,9.8,15.8,39.7,15C100.5,154,150.6,152.6,149.3,136.7z"/>
			<path class="st5" d="M85.9,83.6c-3.3,1.2-2.2-2.6-2.3-4.2c-0.1-1.6,0-3.3-0.7-4.8c-0.5-1.2-1.5-2.2-1.5-3.5c0-1,0.6-1.8,0.8-2.8
				c0.3-1.3,0-2.7,0.2-4c0.4-2.5,3.1-4.5,5.6-4.2c1.3,0.2,2.5,0.8,3.8,0.6c1.4-0.2,2.5-1.3,3.7-2.1c1.7-1,3.9-1.2,5.7-0.3
				c1.8,0.9,3,2.9,2.7,4.9c-0.2,2-1.9,3.7-3.9,3.8c-1.2,0.1-2.3-0.4-3.4-0.7c-1.1-0.3-2.4-0.4-3.4,0.3c-1.2,0.8-1.7,2.7-3.2,2.9
				c-0.8,0.1-1.5-0.4-2.2-0.7c-0.7-0.3-1.7-0.4-2.1,0.3c-0.3,0.5-0.1,1.2,0,1.9c0.1,1.2-0.1,2.3-1.2,2.8c-0.4,3.2,0.5,6.3,1.5,9.3"
				/>
			<polygon class="st6" points="58.5,139.2 49.6,89.1 78.4,89.1 89,138.2 			"/>
			<polygon class="st7" points="60.7,139.1 51.3,89.1 80.1,89.1 90.8,138.2 			"/>
			<path class="st8" d="M80.4,89.1c0,0-10,4.4-12.7,9.1c-2.4,4.1-13.9,28-9.7,31.4c4.3,3.4,32.7,2.3,32.7,2.3l1.8-7.6l-22.3-3.8
				l13.7-12L80.4,89.1z"/>
			<path class="st9" d="M105.4,101.2c-0.2-0.5-1.3-11.1-12.4-10.8c-10.5,0.2-16.3,0.9-20,9l3.9,15.4l0.8,23.8l30.2-1L105.4,101.2z"
				/>
			<path class="st9" d="M77.5,93.5c0,0-4.3,2.3-7.1,7c-2.4,4.1-13.9,28-9.7,31.4c4.3,3.4,32.7,2.3,32.7,2.3l1.8-7.6L73,122.7
				l3.9-7.9L77.5,93.5z"/>
			<path class="st9" d="M99.9,92.2c0,0,10.7,7.2,21.8,25.8l-4.5,11l-11.7-14.9L99.9,92.2z"/>
			<polygon class="st6" points="88.4,140 112.9,140 114.1,137.9 88.4,138.6 			"/>
			<path class="st10" d="M94.8,129.3h10c0,0,6.1,5.5,5.1,5.7c-1.1,0.3-4.8-3.4-4.8-3.4l2.9,6.3c0,0-4.4-0.6-5.8-1.8
				c-1.4-1.2-2.7-2.1-2.7-2.1l-5.7,0.5L94.8,129.3z"/>
			<g>
				<path class="st11" d="M77.3,93.7c0,0,0.1,0,0.3,0c0.1,0,0.2,0,0.3,0c0.1,0,0.3,0,0.4,0c0.7,0.1,1.6,0.4,2.5,1.2
					c0.4,0.4,0.9,0.9,1.2,1.6c0.3,0.6,0.5,1.4,0.6,2.2c0.2,1.6-0.1,3.3-0.6,5.1c-1,3.5-2.4,6.5-3.6,8.6c-0.6,1-1.1,1.9-1.5,2.4
					c-0.2,0.3-0.3,0.5-0.4,0.6c-0.1,0.1-0.2,0.2-0.2,0.2c0,0,0-0.1,0.1-0.2c0.1-0.2,0.2-0.4,0.4-0.6c0.4-0.6,0.8-1.4,1.4-2.4
					c1.1-2.1,2.5-5.1,3.5-8.6c0.5-1.7,0.8-3.5,0.6-5c-0.2-1.6-0.9-2.8-1.8-3.6c-0.9-0.8-1.8-1.2-2.4-1.3
					C77.7,93.6,77.3,93.7,77.3,93.7z"/>
			</g>
			<g>
				<path class="st11" d="M103.9,100c0,0,0,0.1,0,0.2c0,0.2,0.1,0.4,0.1,0.6c0.1,0.6,0.2,1.3,0.4,2.2c0.3,1.9,0.7,4.5,1.2,7.4
					c0.4,2.9,0.8,5.5,1,7.4c0.1,1,0.2,1.7,0.2,2.3c0,0.3,0,0.5,0,0.6c0,0.1,0,0.2,0,0.2c0,0,0-0.1,0-0.2c0-0.2,0-0.4-0.1-0.6
					c-0.1-0.5-0.1-1.3-0.3-2.3c-0.2-1.9-0.6-4.5-1.1-7.4c-0.4-2.9-0.9-5.5-1.1-7.4c-0.1-1-0.2-1.7-0.3-2.3c0-0.3,0-0.5-0.1-0.6
					C103.9,100.1,103.9,100,103.9,100z"/>
			</g>
			<g>
				<path class="st12" d="M75,144.9c0,0.5-2.5,1-5.6,1s-5.6-0.4-5.6-1c0-0.5,2.5-1,5.6-1S75,144.4,75,144.9z"/>
				<path class="st13" d="M71.5,134.6c0,0-4.8-1.8-9.3,0v1c0,0-1.6-0.1-1.6,1.4c0,1.6,0.5,3.6,2.6,4.5l0.9,2.9c0,0,3.9,1,5.9,0
					c0,0,0.5-1.5,0.8-3.1C71.1,140.3,71.5,134.6,71.5,134.6z M61.3,137.7c-0.1-1.3,1-0.9,1-0.9l0.6,3.7
					C62.9,140.5,61.5,140.1,61.3,137.7z"/>
				<path class="st14" d="M70.8,134.7c0,0-4.2-1-8,0C62.9,134.8,66.7,138,70.8,134.7z"/>
				<g>
					<path class="st15" d="M71.2,139c0,0-0.1,0.1-0.3,0.2c-0.2,0.1-0.5,0.2-0.9,0.3c-0.8,0.2-1.8,0.5-3.1,0.5
						c-1.2,0-2.3-0.1-3.1-0.3c-0.4-0.1-0.7-0.2-0.9-0.3c-0.2-0.1-0.3-0.1-0.3-0.1c0,0,0.5,0.1,1.3,0.3c0.8,0.2,1.9,0.3,3.1,0.2
						c1.2,0,2.3-0.2,3-0.4C70.8,139.2,71.2,139,71.2,139z"/>
				</g>
				<g>
					<path class="st15" d="M71,138.1c0,0-0.1,0.1-0.3,0.2c-0.2,0.1-0.5,0.2-0.9,0.4c-0.7,0.3-1.8,0.5-3,0.6c-1.2,0-2.3-0.1-3.1-0.3
						c-0.4-0.1-0.7-0.2-0.9-0.3c-0.2-0.1-0.3-0.1-0.3-0.1c0,0,0.5,0.1,1.2,0.3c0.8,0.2,1.8,0.3,3,0.3c1.2,0,2.2-0.3,3-0.5
						C70.6,138.3,71,138.1,71,138.1z"/>
				</g>
				<g class="st16">
					<path class="st17" d="M63,134.8c-0.4-0.4-0.2-1.1,0.2-1.5c0.4-0.4,1-0.5,1.5-0.8c0.5-0.2,1-0.6,1.1-1.2c0.2-1-1.2-2-0.8-3
						c0.3-0.9,1.8-0.9,2.4-1.7c0.6-0.9-0.2-2.2,0.2-3.2c0.3-0.7,1.1-1.1,1.8-1c0.7,0.1,1.4,0.6,1.8,1.2c0.4,0.6,0.7,1.3,0.9,2.1
						c0.3,0.9,0.5,2,0.1,2.8c-0.2,0.4-0.7,0.9-0.5,1.3c0.1,0.3,0.4,0.4,0.6,0.6c0.5,0.5,0.5,1.4,0.2,2.1c-0.7,1.9-2.5,3.3-4.5,3.6
						c-2,0.2-4.1-0.8-5.1-2.5"/>
				</g>
			</g>
			<g>
				<path class="st18" d="M101.6,101.7c0,0-0.3,0.5-0.7,1.1c-0.4,0.6-0.8,1-0.8,1c0,0,0.3-0.5,0.7-1.1
					C101.3,102.1,101.6,101.7,101.6,101.7z"/>
			</g>
			<path class="st17" d="M85.9,90.8c0,0,6.2,16,10.5,21.4c0,0,1.8-15.7,0-21.4C96.3,90.7,88.1,89.7,85.9,90.8z"/>
			<path class="st10" d="M84.9,64.8l-0.4,9.5c0,0-2.9,0-2.9,2.6c0,3.4,3.2,2.8,3.2,2.8s-0.7,6.4,8.1,6.9c10.3,0.6,8.1-15.4,7.7-23
				L84.9,64.8z"/>
			<path class="st10" d="M96.3,79.2l-0.5,11.5c-0.1,3.2-3.6,5.3-6.5,3.8c0,0-0.1,0-0.1-0.1c-1.6-0.8-2.5-2.4-2.5-4.1
				c0.1-4.1,0.2-11.1,0.2-11.1L96.3,79.2z"/>
			<g>
				<path class="st11" d="M96.3,112.1c0,0-0.1-0.1-0.2-0.2c-0.1-0.1-0.3-0.3-0.6-0.5c-0.5-0.5-1.2-1.2-2-2c-0.8-0.9-1.8-1.9-3-3
					c-0.6-0.5-1.2-1.1-1.8-1.8c-0.6-0.7-1-1.5-1.2-2.4c-0.1-0.7,0-1.5,0.3-2.1l0.1,0.1c-0.3,0.3-0.8,0.3-1.2,0.2
					c-0.4-0.1-0.7-0.4-0.9-0.7c-0.4-0.7-0.5-1.4-0.5-2.1c-0.1-1.3-0.1-2.5-0.2-3.5c0-1-0.1-1.8-0.1-2.3c0-0.3,0-0.5,0-0.6
					c0-0.1,0-0.2,0-0.2c0,0,0,0.1,0,0.2c0,0.2,0,0.4,0.1,0.6c0,0.6,0.1,1.4,0.2,2.3c0.1,1,0.1,2.2,0.2,3.5c0,0.7,0.1,1.4,0.5,2
					c0.2,0.3,0.5,0.5,0.8,0.6c0.3,0.1,0.7,0.1,1-0.2l0.4-0.3l-0.2,0.4c-0.3,0.6-0.4,1.3-0.3,2c0.2,0.9,0.6,1.7,1.2,2.3
					c0.5,0.7,1.2,1.2,1.7,1.8c1.1,1.1,2.1,2.2,3,3c0.8,0.9,1.5,1.6,2,2.1c0.2,0.2,0.4,0.4,0.5,0.6C96.3,112,96.3,112.1,96.3,112.1z"
					/>
			</g>
			<g>
				<path class="st11" d="M96.3,90.7c0,0,0,0,0.1,0.1c0.1,0.1,0.2,0.2,0.4,0.3c0.3,0.3,0.7,0.8,1.2,1.4c0.2,0.3,0.4,0.7,0.6,1.1
					c0.2,0.4,0.4,0.9,0.5,1.4c0.1,0.5,0.2,1.1,0.1,1.7c-0.1,0.6-0.4,1.2-0.8,1.6l0-0.1c0.3,0.3,0.5,0.8,0.6,1.2
					c0.1,0.5,0.1,1,0.1,1.4c-0.1,0.8-0.2,1.6-0.4,2.3c-0.1,0.7-0.3,1.4-0.4,2.1c-0.3,1.3-0.6,2.5-0.8,3.6c-0.3,1-0.5,1.8-0.6,2.4
					c-0.1,0.3-0.1,0.5-0.2,0.6c0,0.1-0.1,0.2-0.1,0.2c0,0,0-0.1,0-0.2c0-0.2,0.1-0.4,0.2-0.6c0.1-0.6,0.3-1.4,0.6-2.4
					c0.2-1,0.5-2.2,0.8-3.6c0.1-0.7,0.3-1.4,0.4-2.1c0.1-0.7,0.3-1.5,0.4-2.3c0-0.5,0-0.9,0-1.4c-0.1-0.4-0.3-0.8-0.6-1.2l-0.1-0.1
					l0.1-0.1c0.4-0.4,0.7-1,0.8-1.6c0.1-0.6,0.1-1.1,0-1.6c-0.1-0.5-0.3-1-0.5-1.4c-0.2-0.4-0.4-0.8-0.6-1.1
					c-0.4-0.6-0.8-1.1-1.1-1.4c-0.1-0.1-0.2-0.3-0.3-0.4C96.4,90.7,96.3,90.7,96.3,90.7z"/>
			</g>
			<g>
				<path class="st11" d="M97.4,129.3c0,0-0.3-3.8-0.7-8.5c-0.3-4.7-0.5-8.6-0.5-8.6c0,0,0.3,3.8,0.7,8.5
					C97.2,125.4,97.4,129.3,97.4,129.3z"/>
			</g>
			<g>
				<path class="st11" d="M98.9,116.8c0,0,0.1,0,0.2,0c0.1,0,0.4,0.1,0.6,0.3c0.2,0.2,0.3,0.6,0.2,0.9c-0.1,0.4-0.5,0.7-1,0.6
					c-0.5,0-0.8-0.4-0.9-0.7c-0.1-0.4,0-0.7,0.1-0.9c0.2-0.2,0.4-0.3,0.6-0.3c0.2,0,0.2,0,0.2,0c0,0-0.1,0-0.2,0
					c-0.1,0-0.3,0.1-0.5,0.3c-0.1,0.2-0.2,0.5-0.1,0.8c0.1,0.3,0.4,0.6,0.7,0.6c0.4,0,0.7-0.2,0.8-0.5c0.1-0.3,0-0.6-0.1-0.8
					c-0.2-0.2-0.4-0.3-0.5-0.3C99,116.8,98.9,116.8,98.9,116.8z"/>
			</g>
			<g>
				<path class="st11" d="M99.5,123.5c0,0,0.1,0,0.2,0c0.1,0,0.4,0.1,0.6,0.3c0.2,0.2,0.3,0.6,0.2,0.9c-0.1,0.4-0.5,0.7-1,0.6
					c-0.5,0-0.8-0.4-0.9-0.7c-0.1-0.4,0-0.7,0.1-0.9c0.2-0.2,0.4-0.3,0.6-0.3c0.2,0,0.2,0,0.2,0c0,0-0.1,0-0.2,0
					c-0.1,0-0.3,0.1-0.5,0.3c-0.1,0.2-0.2,0.5-0.1,0.8c0.1,0.3,0.4,0.6,0.7,0.6c0.4,0,0.7-0.2,0.8-0.5c0.1-0.3,0-0.6-0.1-0.8
					c-0.2-0.2-0.4-0.3-0.5-0.3C99.5,123.5,99.5,123.6,99.5,123.5z"/>
			</g>
			<g>
				<path class="st11" d="M98.8,117.3c0,0,0,0.1,0,0.1c0,0-0.1,0.1-0.1,0c0,0-0.1-0.1,0-0.1C98.7,117.3,98.7,117.3,98.8,117.3z"/>
			</g>
			<g>
				<path class="st11" d="M99.2,117.7c0,0,0.1,0.1,0,0.1c0,0-0.1,0.1-0.1,0c0,0-0.1-0.1,0-0.1C99.2,117.7,99.2,117.6,99.2,117.7z"/>
			</g>
			<g>
				<path class="st11" d="M99.2,124.1c0,0,0,0.1,0,0.1c0,0.1-0.1,0.1-0.1,0c0,0,0-0.1,0-0.1C99.1,124,99.2,124,99.2,124.1z"/>
			</g>
			<g>
				<path class="st11" d="M99.8,124.6c0,0,0,0.1,0,0.2c-0.1,0.1-0.1,0.1-0.2,0c0,0,0-0.1,0-0.2C99.7,124.6,99.8,124.5,99.8,124.6z"
					/>
			</g>
			<g>
				<path class="st11" d="M95.1,126.9c0,0-0.3,2-0.8,4.4c-0.5,2.4-0.9,4.4-0.9,4.4c0,0,0.3-2,0.8-4.4
					C94.6,128.9,95,126.9,95.1,126.9z"/>
			</g>
			<g>
				<path class="st11" d="M91.4,126.4c0,0-0.3,1.9-0.8,4.3c-0.5,2.4-1,4.3-1,4.3c0,0,0.3-1.9,0.8-4.3
					C90.9,128.3,91.3,126.4,91.4,126.4z"/>
			</g>
			<g>
				<path class="st11" d="M95.4,127c0,0-4-0.7-9-1.6c-5-1-9-1.8-9-1.8c0,0,4,0.7,9,1.6C91.4,126.1,95.4,126.9,95.4,127z"/>
			</g>
			<g>
				<path class="st11" d="M93.4,135.6c0,0-3.5-0.2-7.8-0.5c-4.3-0.3-7.8-0.7-7.8-0.7c0,0,3.5,0.2,7.8,0.5
					C89.9,135.2,93.4,135.5,93.4,135.6z"/>
			</g>
			<g>
				<path class="st11" d="M97.9,138c0,0-0.3-0.8-0.3-1.9c-0.1-1.1,0-1.9,0.1-1.9c0.1,0,0,0.9,0.1,1.9C97.8,137.1,98,138,97.9,138z"
					/>
			</g>
			<g>
				<path class="st11" d="M104.1,107.3c0,0-1.1,0.2-2.4,0.3c-1.3,0.1-2.4,0.1-2.4,0.1c0,0,1.1-0.2,2.4-0.3
					C103,107.3,104.1,107.2,104.1,107.3z"/>
			</g>
			<g>
				<path class="st11" d="M119,125c0,0-3.1-3.6-6.8-8.2c-3.7-4.6-6.7-8.3-6.7-8.3c0,0,3.1,3.6,6.8,8.2C116,121.2,119,124.9,119,125z
					"/>
			</g>
			<g>
				<path class="st11" d="M79.9,123.9c0,0-0.3-2.8-0.5-6.3c-0.2-3.5-0.4-6.3-0.4-6.3c0,0,0.3,2.8,0.5,6.3
					C79.7,121.1,79.9,123.9,79.9,123.9z"/>
			</g>
			<g>
				<path class="st11" d="M81.3,138.5c0,0-0.4-0.8-0.6-1.9c-0.2-1.1,0-2,0-2c0.1,0,0,0.9,0.1,2C81,137.7,81.4,138.5,81.3,138.5z"/>
			</g>
			<g>
				<path class="st18" d="M102.6,106c0,0-0.3-0.2-0.6-0.6c-0.3-0.3-0.5-0.6-0.4-0.7c0,0,0.3,0.2,0.6,0.6S102.6,106,102.6,106z"/>
			</g>
			<g>
				<path class="st18" d="M86.5,111.9c0,0-0.2,0.4-0.5,0.8c-0.3,0.4-0.6,0.8-0.6,0.8c0,0,0.2-0.4,0.5-0.9
					C86.2,112.2,86.5,111.8,86.5,111.9z"/>
			</g>
			<g>
				<path class="st18" d="M82.3,115.3c0,0-0.4-0.3-0.9-0.7c-0.5-0.4-0.8-0.8-0.8-0.9c0,0,0.4,0.3,0.9,0.7
					C82,114.8,82.3,115.2,82.3,115.3z"/>
			</g>
			<g>
				<path class="st18" d="M83.1,110.8c0,0-0.3-0.3-0.5-0.9c-0.2-0.6-0.1-1-0.1-1c0.1,0,0.1,0.5,0.3,1
					C82.9,110.4,83.2,110.8,83.1,110.8z"/>
			</g>
			<g>
				<path class="st18" d="M85.4,107.1c0,0-0.4-0.1-0.9-0.4c-0.4-0.3-0.7-0.7-0.7-0.7c0,0,0.3,0.3,0.8,0.6
					C85,106.8,85.4,107,85.4,107.1z"/>
			</g>
			<g>
				<path class="st18" d="M91.8,111c0,0-0.1,0.4-0.4,0.8c-0.2,0.4-0.5,0.7-0.5,0.7c0,0,0.1-0.4,0.4-0.8
					C91.5,111.3,91.8,111,91.8,111z"/>
			</g>
			<g>
				<path class="st18" d="M89.3,109.7c0,0-0.2-0.5-0.2-1.1c0-0.6,0-1.1,0.1-1.1c0,0,0.1,0.5,0.1,1.1
					C89.3,109.2,89.3,109.7,89.3,109.7z"/>
			</g>
			<g>
				<path class="st18" d="M89.3,117.3c0,0-0.3-0.5-0.4-1.1c-0.1-0.7,0-1.2,0.1-1.2c0.1,0,0,0.5,0.1,1.2
					C89.2,116.7,89.3,117.3,89.3,117.3z"/>
			</g>
			<g>
				<path class="st18" d="M86.8,119.2c0,0-0.4-0.3-0.8-0.8c-0.4-0.5-0.5-1-0.5-1c0,0,0.3,0.4,0.6,0.9
					C86.5,118.8,86.8,119.2,86.8,119.2z"/>
			</g>
			<g>
				<path class="st18" d="M83.3,120.3c0,0-0.3,0.3-0.6,0.6c-0.4,0.3-0.7,0.5-0.7,0.4c0,0,0.3-0.3,0.6-0.6
					C82.9,120.4,83.2,120.3,83.3,120.3z"/>
			</g>
			<g>
				<path class="st18" d="M81.1,118.4c0,0-0.3-0.1-0.5-0.4c-0.2-0.3-0.2-0.6-0.2-0.6c0,0,0.2,0.2,0.3,0.5
					C81,118.2,81.1,118.4,81.1,118.4z"/>
			</g>
			<g>
				<path class="st18" d="M86.6,123c0,0,0,0.4-0.2,0.9c-0.1,0.5-0.3,0.9-0.3,0.8c0,0,0-0.4,0.2-0.9C86.4,123.4,86.6,123,86.6,123z"
					/>
			</g>
			<g>
				<path class="st18" d="M90.1,124c0,0-0.4-0.3-0.6-0.8c-0.3-0.5-0.3-1-0.3-1c0,0,0.2,0.4,0.4,0.9C89.8,123.6,90.1,124,90.1,124z"
					/>
			</g>
			<g>
				<path class="st18" d="M94.3,124.1c0,0-0.4-0.2-0.9-0.5c-0.5-0.3-0.8-0.6-0.8-0.6c0,0,0.4,0.2,0.9,0.5
					C94,123.7,94.4,124,94.3,124.1z"/>
			</g>
			<g>
				<path class="st18" d="M94.8,119.1c0,0-0.3,0.4-0.7,0.7c-0.4,0.4-0.8,0.6-0.8,0.6c0,0,0.3-0.4,0.7-0.7S94.8,119,94.8,119.1z"/>
			</g>
			<g>
				<path class="st18" d="M91.1,119.1c0,0,0,0.2-0.2,0.4c-0.1,0.2-0.3,0.3-0.3,0.3c0,0,0-0.2,0.2-0.4
					C90.9,119.2,91.1,119,91.1,119.1z"/>
			</g>
			<g>
				<path class="st18" d="M93.9,116.2c0,0-0.4-0.3-0.8-0.7c-0.5-0.4-0.9-0.7-0.8-0.7c0,0,0.5,0.2,1,0.6
					C93.6,115.8,93.9,116.2,93.9,116.2z"/>
			</g>
			<g>
				<path class="st18" d="M85.5,104.4c0,0,0.3-0.5,0.6-1.1c0.3-0.6,0.5-1.2,0.5-1.2c0,0,0,0.6-0.3,1.3
					C85.9,104,85.5,104.4,85.5,104.4z"/>
			</g>
			<g>
				<path class="st18" d="M83.8,102.6c0,0-0.2-0.5-0.2-1.2c0-0.7,0-1.2,0.1-1.2c0,0,0.1,0.5,0.1,1.2C83.8,102,83.9,102.6,83.8,102.6
					z"/>
			</g>
			<g>
				<path class="st18" d="M83.9,95.6c0,0-0.4,0-0.8-0.3c-0.4-0.3-0.6-0.6-0.5-0.7c0,0,0.3,0.3,0.6,0.5
					C83.6,95.4,83.9,95.6,83.9,95.6z"/>
			</g>
			<g>
				<path class="st18" d="M82.7,92.2c0,0-0.2,0.2-0.6,0.4c-0.3,0.2-0.6,0.3-0.6,0.2c0,0,0.2-0.2,0.6-0.4
					C82.4,92.3,82.6,92.2,82.7,92.2z"/>
			</g>
			<g>
				<path class="st18" d="M86.9,97.5c0,0,0-0.4,0-0.8c0.1-0.4,0.1-0.8,0.2-0.8c0,0,0,0.4,0,0.8C87,97.1,86.9,97.5,86.9,97.5z"/>
			</g>
			<g>
				<path class="st18" d="M89.7,102.4c0,0-0.2-0.1-0.4-0.2c-0.2-0.2-0.4-0.3-0.3-0.4c0,0,0.2,0.1,0.4,0.2
					C89.5,102.2,89.7,102.4,89.7,102.4z"/>
			</g>
			<g>
				<path class="st18" d="M98.3,100.6c0,0,0,0.4-0.1,0.9c-0.1,0.5-0.2,0.9-0.3,0.9c0,0,0-0.4,0.1-0.9
					C98.1,101,98.2,100.6,98.3,100.6z"/>
			</g>
			<g>
				<path class="st18" d="M98.5,96.3c0,0-0.3-0.1-0.5-0.3c-0.2-0.3-0.3-0.5-0.2-0.6c0,0,0.2,0.2,0.4,0.5
					C98.3,96.1,98.5,96.2,98.5,96.3z"/>
			</g>
			<g>
				<path class="st18" d="M100.8,97.3c0,0-0.1,0.3-0.3,0.7c-0.2,0.4-0.5,0.7-0.5,0.6c0,0,0.1-0.3,0.3-0.7
					C100.6,97.6,100.8,97.3,100.8,97.3z"/>
			</g>
			<g>
				<path class="st18" d="M102.7,99.5c0,0-0.1-0.5,0-1c0-0.5,0.1-1,0.1-1c0,0,0.1,0.5,0,1C102.8,99,102.7,99.5,102.7,99.5z"/>
			</g>
			<g>
				<path class="st18" d="M101.3,94.7c0,0-0.4-0.3-0.8-0.8c-0.4-0.5-0.7-0.9-0.6-0.9c0,0,0.4,0.3,0.8,0.8
					C101,94.2,101.3,94.6,101.3,94.7z"/>
			</g>
			<g>
				<path class="st18" d="M78.1,101.7c0,0,0-0.5,0.1-1.2c0.1-0.7,0.2-1.2,0.3-1.2c0,0,0,0.5-0.1,1.2
					C78.3,101.2,78.1,101.7,78.1,101.7z"/>
			</g>
			<g>
				<path class="st18" d="M76.2,97.7c0,0-0.4,0.1-0.9,0.2c-0.5,0.1-0.9,0.3-0.9,0.2c0,0,0.4-0.3,0.9-0.4
					C75.8,97.6,76.2,97.6,76.2,97.7z"/>
			</g>
			<g>
				<path class="st18" d="M78.8,96.1c0,0-0.3-0.2-0.6-0.5c-0.3-0.3-0.5-0.6-0.5-0.6c0,0,0.3,0.2,0.6,0.5
					C78.6,95.8,78.8,96,78.8,96.1z"/>
			</g>
			<g>
				<path class="st18" d="M80.9,100.8c0,0-0.2-0.4-0.2-1c0-0.6,0.1-1,0.2-1c0,0,0,0.5,0,1C80.9,100.4,81,100.8,80.9,100.8z"/>
			</g>
			<g>
				<path class="st18" d="M78.3,107.4c0,0,0.1-0.4,0.3-0.9c0.2-0.5,0.4-0.9,0.5-0.8c0,0-0.1,0.4-0.3,0.9
					C78.5,107,78.3,107.4,78.3,107.4z"/>
			</g>
			<g>
				<path class="st18" d="M75.9,104.6c0,0,0-0.4,0.3-0.8c0.3-0.4,0.6-0.6,0.6-0.6c0,0-0.2,0.3-0.5,0.7
					C76.1,104.2,76,104.6,75.9,104.6z"/>
			</g>
			<g>
				<path class="st18" d="M72.8,103.9c0,0,0.1-0.5,0.4-1.1c0.2-0.6,0.5-1,0.5-1c0,0-0.1,0.5-0.4,1.1
					C73.1,103.4,72.8,103.9,72.8,103.9z"/>
			</g>
			<g>
				<path class="st18" d="M70.8,103.1c0,0,0-0.5,0-1c0.1-0.6,0.2-1,0.2-1c0,0,0,0.5,0,1C70.9,102.6,70.8,103.1,70.8,103.1z"/>
			</g>
			<g>
				<path class="st18" d="M69.4,108.4c0,0-0.3-0.3-0.5-0.7c-0.2-0.4-0.4-0.8-0.4-0.8c0,0,0.3,0.3,0.5,0.7
					C69.2,108,69.4,108.4,69.4,108.4z"/>
			</g>
			<g>
				<path class="st18" d="M71.8,106.7c0,0-0.2-0.4-0.3-0.9c-0.1-0.5-0.2-0.9-0.2-0.9c0,0,0.2,0.4,0.3,0.9
					C71.8,106.3,71.9,106.7,71.8,106.7z"/>
			</g>
			<g>
				<path class="st18" d="M75,108.7c0,0-0.4,0.3-1,0.6c-0.5,0.3-1,0.6-1,0.6c0,0,0.4-0.4,0.9-0.7C74.5,108.8,75,108.6,75,108.7z"/>
			</g>
			<g>
				<path class="st18" d="M75.8,113.6c0,0,0.2-0.4,0.5-1c0.3-0.5,0.5-1,0.5-1c0,0-0.1,0.5-0.4,1C76.2,113.3,75.8,113.6,75.8,113.6z"
					/>
			</g>
			<g>
				<path class="st18" d="M73.5,114.3c0,0-0.1-0.5,0-1.2c0-0.7,0.1-1.2,0.2-1.2c0,0,0.1,0.5,0,1.2C73.6,113.8,73.5,114.3,73.5,114.3
					z"/>
			</g>
			<g>
				<path class="st18" d="M71.2,113c0,0-0.6-0.2-1.1-0.7c-0.5-0.5-0.7-1.1-0.7-1.1c0,0,0.3,0.5,0.8,1C70.7,112.7,71.3,113,71.2,113z
					"/>
			</g>
			<g>
				<path class="st18" d="M67.3,112.6c0,0,0-0.5,0.1-1c0.1-0.5,0.2-1,0.3-1c0,0,0,0.5-0.1,1C67.5,112.2,67.4,112.6,67.3,112.6z"/>
			</g>
			<g>
				<path class="st18" d="M73.6,117.1c0,0-0.3,0.3-0.6,0.6c-0.3,0.3-0.6,0.6-0.6,0.6c0,0,0.2-0.4,0.5-0.7
					C73.2,117.2,73.6,117,73.6,117.1z"/>
			</g>
			<g>
				<path class="st18" d="M69.1,118.7c0,0-0.1-0.5-0.1-1.1c0-0.6,0-1.1,0.1-1.1c0,0,0.1,0.5,0.1,1.1
					C69.1,118.2,69.1,118.7,69.1,118.7z"/>
			</g>
			<g>
				<path class="st18" d="M66.9,120c0,0-0.5,0-1.1-0.3c-0.6-0.2-1-0.5-0.9-0.6c0,0,0.5,0.2,1,0.4C66.5,119.8,67,119.9,66.9,120z"/>
			</g>
			<g>
				<path class="st18" d="M65.7,116.6c0,0-0.1-0.4-0.2-1c-0.1-0.5-0.1-1,0-1c0,0,0.1,0.4,0.2,1C65.8,116.2,65.8,116.6,65.7,116.6z"
					/>
			</g>
			<g>
				<path class="st18" d="M69.6,122.1c0,0-0.4,0.2-0.9,0.2c-0.5,0.1-0.9,0.1-0.9,0.1c0,0,0.4-0.2,0.9-0.2
					C69.2,122.1,69.6,122.1,69.6,122.1z"/>
			</g>
			<g>
				<path class="st18" d="M63.6,123.6c0,0-0.1-0.4-0.2-1c-0.1-0.5-0.1-1,0-1c0,0,0.1,0.4,0.2,1C63.7,123.2,63.7,123.6,63.6,123.6z"
					/>
			</g>
			<g>
				<path class="st18" d="M61.6,127.1c0,0-0.2-0.4-0.3-1c-0.1-0.6-0.2-1-0.1-1c0,0,0.2,0.4,0.3,1C61.6,126.6,61.7,127.1,61.6,127.1z
					"/>
			</g>
			<g>
				<path class="st18" d="M63.3,128.8c0,0-0.3,0.3-0.8,0.5c-0.4,0.2-0.8,0.4-0.8,0.3c0,0,0.3-0.3,0.8-0.5
					C62.9,128.9,63.3,128.8,63.3,128.8z"/>
			</g>
			<g>
				<path class="st18" d="M65.4,128.1c0,0-0.4-0.3-0.7-0.9c-0.3-0.6-0.4-1.1-0.4-1.1c0,0,0.2,0.5,0.5,1
					C65.1,127.6,65.4,128,65.4,128.1z"/>
			</g>
			<g>
				<path class="st18" d="M68.2,126.8c0,0-0.2-0.3-0.4-0.7c-0.2-0.4-0.3-0.7-0.2-0.8c0,0,0.2,0.3,0.4,0.7
					C68.2,126.5,68.3,126.8,68.2,126.8z"/>
			</g>
			<g>
				<path class="st18" d="M66.8,129.8c0,0-0.3,0.4-0.8,0.8c-0.5,0.4-0.9,0.7-0.9,0.7c0,0,0.3-0.4,0.8-0.8
					C66.4,130.1,66.8,129.8,66.8,129.8z"/>
			</g>
			<g>
				<path class="st18" d="M70.9,131.2c0,0-0.5-0.4-0.9-1c-0.4-0.6-0.7-1.2-0.6-1.2c0,0,0.3,0.5,0.8,1.1
					C70.5,130.7,70.9,131.1,70.9,131.2z"/>
			</g>
			<g>
				<path class="st18" d="M69.8,132.7c0,0-0.4,0.1-0.9,0.2c-0.5,0-0.9,0-0.9,0c0,0,0.4-0.1,0.9-0.2
					C69.4,132.7,69.8,132.7,69.8,132.7z"/>
			</g>
			<g>
				<path class="st18" d="M72.5,126.3c0,0-0.3-0.6-0.5-1.4c-0.2-0.8-0.4-1.4-0.3-1.4c0,0,0.3,0.6,0.5,1.4
					C72.4,125.7,72.5,126.3,72.5,126.3z"/>
			</g>
			<g>
				<path class="st18" d="M76.5,124.8c0,0-0.5,0.2-1.1,0.2c-0.6,0.1-1.1,0.1-1.1,0.1c0,0,0.5-0.2,1.1-0.2
					C76,124.8,76.5,124.8,76.5,124.8z"/>
			</g>
			<g>
				<path class="st18" d="M74.4,129c0,0-0.3,0.1-0.7,0.3c-0.4,0.2-0.7,0.4-0.7,0.3c0,0,0.2-0.3,0.6-0.5C74,129,74.4,129,74.4,129z"
					/>
			</g>
			<g>
				<path class="st18" d="M76.1,132.7c0,0-0.4-0.3-0.9-0.8c-0.5-0.5-0.8-0.9-0.8-0.9c0,0,0.4,0.3,0.9,0.8
					C75.8,132.3,76.2,132.7,76.1,132.7z"/>
			</g>
			<g>
				<path class="st18" d="M78.1,129.7c0,0,0-0.5,0.1-1c0.1-0.6,0.1-1,0.1-1c0,0,0.1,0.5,0.1,1C78.3,129.2,78.2,129.7,78.1,129.7z"/>
			</g>
			<g>
				<path class="st18" d="M80.8,131.9c0,0-0.5,0.3-1.1,0.6c-0.6,0.3-1.1,0.4-1.1,0.4c0,0,0.5-0.3,1.1-0.6
					C80.2,132.1,80.7,131.9,80.8,131.9z"/>
			</g>
			<g>
				<path class="st18" d="M82.3,127.3c0,0-0.4-0.5-0.7-1.1c-0.4-0.6-0.6-1.2-0.6-1.2c0,0,0.4,0.5,0.7,1.1
					C82.1,126.7,82.3,127.2,82.3,127.3z"/>
			</g>
			<g>
				<path class="st18" d="M83.4,129.1c0,0-0.5,0-1.1,0.1c-0.6,0.1-1.1,0.2-1.1,0.1c0,0,0.4-0.2,1.1-0.3
					C82.9,129,83.4,129.1,83.4,129.1z"/>
			</g>
			<g>
				<path class="st18" d="M87.2,128.1c0,0-0.3-0.5-0.7-1c-0.4-0.5-0.8-0.9-0.8-0.9c0,0,0.5,0.3,0.9,0.8
					C87,127.6,87.2,128.1,87.2,128.1z"/>
			</g>
			<g>
				<path class="st18" d="M86.3,131.3c0,0-0.3,0.2-0.8,0.4c-0.5,0.2-0.9,0.3-0.9,0.2c0,0,0.3-0.2,0.8-0.4
					C85.9,131.3,86.3,131.2,86.3,131.3z"/>
			</g>
			<g>
				<path class="st18" d="M92.3,133.1c0,0-0.1-0.4-0.2-0.9c-0.1-0.5-0.1-1,0-1c0,0,0.1,0.4,0.2,1C92.3,132.6,92.4,133,92.3,133.1z"
					/>
			</g>
			<g>
				<path class="st18" d="M93.1,129.3c0,0,0-0.5,0.1-1.1c0.1-0.6,0.2-1.1,0.2-1.1c0,0,0,0.5-0.1,1.1
					C93.3,128.8,93.2,129.3,93.1,129.3z"/>
			</g>
			<g>
				<path class="st18" d="M89.1,130.2c0,0-0.2,0.7-0.6,1.6c-0.4,0.9-0.7,1.5-0.7,1.5c0,0,0.2-0.7,0.6-1.6
					C88.7,130.9,89,130.2,89.1,130.2z"/>
			</g>
			<g>
				<path class="st18" d="M78.3,118.8c0,0-0.2-0.5-0.2-1.1c-0.1-0.6-0.1-1.2-0.1-1.2c0,0,0.2,0.5,0.2,1.1
					C78.3,118.3,78.3,118.8,78.3,118.8z"/>
			</g>
			<g>
				<path class="st18" d="M78.6,122.7c0,0-0.2-0.3-0.3-0.7c-0.1-0.4,0-0.7,0.1-0.7c0,0,0,0.3,0.1,0.7
					C78.6,122.4,78.7,122.7,78.6,122.7z"/>
			</g>
			<g>
				<path class="st18" d="M79.4,137.6c0,0-0.2-0.3-0.3-0.8C79,136.4,79,136,79,136s0.2,0.3,0.3,0.8
					C79.4,137.2,79.4,137.6,79.4,137.6z"/>
			</g>
			<g>
				<path class="st18" d="M84,136.9c0,0-0.5-0.1-1.1-0.3c-0.6-0.2-1.1-0.4-1.1-0.4c0,0,0.5,0.1,1.1,0.3
					C83.5,136.7,84,136.9,84,136.9z"/>
			</g>
			<g>
				<path class="st18" d="M87.9,136.1c0,0-0.2,0.3-0.6,0.6c-0.4,0.3-0.7,0.5-0.7,0.5c0,0,0.2-0.3,0.6-0.6
					C87.5,136.3,87.8,136.1,87.9,136.1z"/>
			</g>
			<g>
				<path class="st18" d="M91.7,137c0,0-0.4-0.1-0.9-0.3c-0.5-0.2-0.9-0.3-0.9-0.3c0,0,0.5,0,1,0.2C91.4,136.7,91.7,137,91.7,137z"
					/>
			</g>
			<g>
				<path class="st18" d="M96.2,135.4c0,0-0.2,0.3-0.4,0.6c-0.2,0.3-0.4,0.6-0.4,0.6c0,0,0-0.3,0.3-0.7
					C95.9,135.6,96.2,135.4,96.2,135.4z"/>
			</g>
			<g>
				<path class="st18" d="M96.3,126.4c0,0-0.2-0.5-0.2-1c-0.1-0.6-0.1-1.1-0.1-1.1c0,0,0.2,0.5,0.2,1
					C96.3,125.9,96.4,126.4,96.3,126.4z"/>
			</g>
			<g>
				<path class="st18" d="M100.1,128.4c0,0-0.4-0.2-0.8-0.5c-0.4-0.3-0.7-0.6-0.7-0.6c0,0,0.4,0.2,0.8,0.5
					C99.8,128.1,100.1,128.3,100.1,128.4z"/>
			</g>
			<g>
				<path class="st18" d="M104,122.5c0,0,0.1-0.6,0.3-1.3c0.2-0.7,0.5-1.3,0.5-1.3c0,0-0.1,0.6-0.3,1.3
					C104.3,122,104.1,122.5,104,122.5z"/>
			</g>
			<g>
				<path class="st18" d="M101.7,122.1c0,0-0.4-0.2-0.8-0.5c-0.4-0.3-0.7-0.6-0.7-0.7c0,0,0.4,0.2,0.8,0.5
					C101.4,121.8,101.8,122.1,101.7,122.1z"/>
			</g>
			<g>
				<path class="st18" d="M102.9,117.6c0,0-0.1,0.4-0.3,0.9c-0.2,0.5-0.4,0.8-0.5,0.8c0,0,0.1-0.4,0.3-0.9
					C102.6,117.9,102.9,117.6,102.9,117.6z"/>
			</g>
			<g>
				<path class="st18" d="M98.5,121.8c0,0-0.3-0.3-0.5-0.8c-0.2-0.5-0.3-0.9-0.2-0.9c0,0,0.2,0.4,0.4,0.8
					C98.3,121.4,98.5,121.7,98.5,121.8z"/>
			</g>
			<g>
				<path class="st18" d="M101.9,113.2c0,0-0.1,0.4-0.5,0.7c-0.4,0.4-0.7,0.5-0.8,0.5c0,0,0.3-0.3,0.6-0.6
					C101.6,113.5,101.9,113.2,101.9,113.2z"/>
			</g>
			<g>
				<path class="st18" d="M98.2,113.8c0,0-0.3-0.3-0.6-0.7c-0.3-0.4-0.4-0.7-0.4-0.8c0,0,0.3,0.3,0.6,0.7
					C98.1,113.4,98.2,113.8,98.2,113.8z"/>
			</g>
			<g>
				<path class="st18" d="M101.8,110.4c0,0-0.4-0.1-0.8-0.4c-0.4-0.2-0.7-0.5-0.7-0.5c0,0,0.4,0.1,0.8,0.4
					C101.5,110.1,101.8,110.4,101.8,110.4z"/>
			</g>
			<g>
				<path class="st18" d="M104.3,113.5c0,0-0.1-0.6,0-1.4c0-0.7,0.1-1.3,0.2-1.3c0,0,0.1,0.6,0,1.4
					C104.4,112.9,104.3,113.5,104.3,113.5z"/>
			</g>
			<g>
				<path class="st18" d="M102.3,127.5c0,0,0.1-0.5,0.3-1.2c0.2-0.6,0.5-1.1,0.5-1.1c0,0-0.1,0.5-0.3,1.2
					C102.6,127.1,102.4,127.5,102.3,127.5z"/>
			</g>
			<g>
				<path class="st18" d="M105.8,127.9c0,0,0-0.5,0.2-1.1c0.1-0.6,0.3-1.1,0.4-1.1c0,0,0,0.5-0.2,1.1
					C106,127.5,105.8,127.9,105.8,127.9z"/>
			</g>
			<g>
				<path class="st18" d="M100.6,136.9c0,0-0.3-0.3-0.5-0.8c-0.2-0.5-0.1-0.9-0.1-0.9c0.1,0,0.1,0.4,0.3,0.9
					C100.4,136.5,100.6,136.9,100.6,136.9z"/>
			</g>
			<g>
				<path class="st18" d="M110.8,109.8c0,0-0.2-0.5-0.1-1.2c0-0.7,0.2-1.2,0.2-1.1c0,0,0,0.5,0,1.2
					C110.8,109.3,110.8,109.8,110.8,109.8z"/>
			</g>
			<g>
				<path class="st18" d="M108.7,107.5c0,0-0.4,0-0.9-0.1c-0.5-0.1-0.8-0.3-0.8-0.3c0,0,0.4,0,0.9,0.1
					C108.4,107.3,108.7,107.5,108.7,107.5z"/>
			</g>
			<g>
				<path class="st18" d="M109.1,104.4c0,0-0.1-0.5-0.1-1.2c0-0.7,0.1-1.2,0.1-1.2c0,0,0.1,0.5,0.1,1.2
					C109.2,103.9,109.2,104.4,109.1,104.4z"/>
			</g>
			<g>
				<path class="st18" d="M107.4,102.9c0,0-0.4,0.1-1,0c-0.5,0-1-0.1-1-0.2c0,0,0.4-0.1,1,0C107,102.8,107.4,102.8,107.4,102.9z"/>
			</g>
			<g>
				<path class="st18" d="M106,99.6c0,0-0.1-0.4-0.2-0.9c0-0.5,0-0.9,0-0.9c0,0,0.1,0.4,0.2,0.9C106,99.2,106,99.6,106,99.6z"/>
			</g>
			<g>
				<path class="st18" d="M108.5,115.1c0,0-0.3-0.3-0.7-0.8c-0.3-0.4-0.6-0.8-0.5-0.9c0,0,0.3,0.3,0.7,0.8
					C108.3,114.7,108.6,115.1,108.5,115.1z"/>
			</g>
			<g>
				<path class="st18" d="M110.1,117.5c0,0,0-0.5,0-1c0-0.6,0.1-1,0.2-1c0,0,0,0.5,0,1C110.3,117.1,110.2,117.5,110.1,117.5z"/>
			</g>
			<g>
				<path class="st18" d="M112.8,119.1c0,0-0.3,0.1-0.8,0.2c-0.4,0.1-0.8,0.1-0.8,0c0,0,0.3-0.1,0.8-0.2
					C112.5,119,112.8,119,112.8,119.1z"/>
			</g>
			<g>
				<path class="st18" d="M114.1,121c0,0,0,0.4-0.2,0.8c-0.1,0.4-0.3,0.8-0.3,0.7c0,0,0-0.4,0.2-0.8
					C113.9,121.3,114.1,121,114.1,121z"/>
			</g>
			<g>
				<path class="st18" d="M116.2,123.9c0,0-0.1,0.3-0.2,0.7c-0.1,0.4,0,0.7-0.1,0.7c0,0-0.2-0.3-0.1-0.7
					C115.9,124.1,116.1,123.8,116.2,123.9z"/>
			</g>
			<g>
				<path class="st18" d="M116.9,119.1c0,0.1-0.5,0-1.1,0.1c-0.6,0.1-1,0.2-1.1,0.1c0,0,0.4-0.2,1-0.3
					C116.5,119,117,119.1,116.9,119.1z"/>
			</g>
			<g>
				<path class="st18" d="M119.2,118.3c0,0-0.1,0.5-0.1,1.1c-0.1,0.6-0.1,1.1-0.1,1.1c0,0-0.1-0.5-0.1-1.1
					C119,118.7,119.2,118.3,119.2,118.3z"/>
			</g>
			<g>
				<path class="st18" d="M113.8,114.5c0,0,0-0.6,0-1.3c0.1-0.7,0.2-1.3,0.2-1.3c0,0,0,0.6,0,1.3
					C113.9,113.9,113.8,114.5,113.8,114.5z"/>
			</g>
			<g>
				<path class="st18" d="M112.5,112.1c0,0-0.4,0-0.9-0.1c-0.5-0.1-0.9-0.2-0.8-0.3s0.4,0,0.9,0.1
					C112.1,111.9,112.5,112.1,112.5,112.1z"/>
			</g>
			<g>
				<path class="st18" d="M113.6,108.5c0,0-0.2-0.5-0.3-1.1c0-0.6,0.1-1.1,0.1-1.1c0.1,0,0,0.5,0,1.1
					C113.5,108,113.7,108.5,113.6,108.5z"/>
			</g>
			<g>
				<path class="st18" d="M112.1,105c0,0-0.2,0.1-0.5,0s-0.5-0.1-0.5-0.2c0,0,0.2-0.1,0.5,0C111.8,104.9,112.1,105,112.1,105z"/>
			</g>
			<g>
				<path class="st18" d="M116.7,111.5c0,0-0.4,0-0.8-0.2c-0.4-0.2-0.6-0.5-0.6-0.5c0,0,0.3,0.2,0.7,0.4
					C116.4,111.3,116.7,111.4,116.7,111.5z"/>
			</g>
			<g>
				<path class="st18" d="M118.4,115.1c0,0-0.3,0.3-0.8,0.5c-0.5,0.2-0.8,0.4-0.9,0.4c0,0,0.3-0.3,0.8-0.5
					C118,115.2,118.3,115.1,118.4,115.1z"/>
			</g>
			<polygon class="st17" points="86.3,90.6 86.6,87.8 92.2,92.2 93.6,94.5 96.2,88.6 96.8,89.4 96.8,92.9 94.1,96.3 88.9,95.8 			
				"/>
			<g>
				<path class="st19" d="M92,92.5c0,0,0,0.1,0,0.3c0,0.3,0,0.6-0.1,1c-0.1,0.9-0.2,2-0.3,3.3l0,0.2l-0.1-0.2
					c-0.4-0.5-0.8-1-1.3-1.5C89.1,94.3,88,93,87.3,92c-0.4-0.4-0.6-0.8-0.9-1.1c-0.2-0.3-0.3-0.4-0.3-0.4c0,0,0.1,0.1,0.4,0.4
					c0.2,0.3,0.5,0.6,0.9,1.1c0.8,0.9,1.8,2.2,3,3.6c0.4,0.5,0.9,1,1.2,1.5l-0.1,0c0.1-1.3,0.3-2.5,0.3-3.3c0-0.4,0.1-0.7,0.1-1
					C92,92.6,92,92.5,92,92.5z"/>
			</g>
			<g>
				<path class="st19" d="M96.7,92.8c0,0,0,0.2,0,0.6c0,0.4-0.1,0.9-0.2,1.4l0,0.4l-0.1-0.4c-0.1-0.3-0.2-0.6-0.3-1
					c-0.2-0.8-0.3-1.6-0.4-2.1c-0.1-0.6-0.1-0.9-0.1-0.9c0,0,0.1,0.3,0.2,0.9c0.1,0.5,0.2,1.3,0.5,2.1c0.1,0.4,0.2,0.7,0.3,1l-0.2,0
					c0.1-0.6,0.2-1.1,0.2-1.4C96.6,93,96.7,92.8,96.7,92.8z"/>
			</g>
			<g>
				<path class="st19" d="M96.3,112.1c0,0,0-0.1,0-0.2c0-0.1-0.1-0.3-0.1-0.5c-0.1-0.5-0.2-1.1-0.3-1.9c-0.2-1.6-0.6-3.9-0.9-6.3
					c-0.4-2.4-0.7-4.7-0.9-6.3c-0.1-0.8-0.2-1.4-0.3-1.9c0-0.2-0.1-0.4-0.1-0.5c0-0.1,0-0.2,0-0.2c0,0,0,0.1,0,0.2
					c0,0.1,0.1,0.3,0.1,0.5c0.1,0.4,0.2,1.1,0.3,1.9c0.3,1.6,0.6,3.8,1,6.3c0.4,2.5,0.7,4.7,0.9,6.3c0.1,0.8,0.2,1.4,0.2,1.9
					c0,0.2,0,0.4,0.1,0.5C96.3,112.1,96.3,112.1,96.3,112.1z"/>
			</g>
			<g>
				<path class="st19" d="M91.2,95.2c0,0,0,0.1-0.1,0.3c-0.1,0.1-0.1,0.2-0.2,0.2c0,0-0.1-0.1,0-0.3C91,95.2,91.2,95.2,91.2,95.2z"
					/>
			</g>
			<g>
				<path class="st19" d="M96.4,93.3c0,0-0.1-0.1-0.1-0.3c0-0.2,0-0.3,0.1-0.3c0,0,0.1,0.1,0.1,0.3C96.5,93.2,96.4,93.3,96.4,93.3z"
					/>
			</g>
			<g>
				<path class="st19" d="M95.6,91c0,0-0.2,0.9-0.8,1.8c-0.6,0.9-1.2,1.6-1.2,1.6c0,0,0.5-0.7,1-1.7C95.2,91.8,95.6,90.9,95.6,91z"
					/>
			</g>
			<g>
				<path class="st19" d="M93.8,94.6c0,0-0.5-0.3-1-0.9c-0.5-0.5-0.9-1-0.8-1c0,0,0.4,0.4,0.9,0.9C93.4,94.1,93.8,94.5,93.8,94.6z"
					/>
			</g>
			<g>
				<path class="st19" d="M95.2,99.7c0,0-0.1-0.1-0.2-0.2c0-0.1,0-0.2,0-0.2c0,0,0.1,0.1,0.1,0.2C95.3,99.6,95.3,99.7,95.2,99.7z"/>
			</g>
			<g>
				<path class="st19" d="M95.7,103.1c0,0-0.1-0.1-0.1-0.2c0-0.1,0-0.2,0.1-0.2c0,0,0.1,0.1,0.1,0.2C95.8,103,95.8,103.1,95.7,103.1
					z"/>
			</g>
			<g>
				<path class="st20" d="M94.2,78.1c0,0,0.1,0.1,0.3,0.2c0.2,0.1,0.6,0.1,0.8-0.1c0.1-0.1,0.2-0.3,0.3-0.6c0.1-0.2,0.1-0.5,0.1-0.7
					c0-0.5-0.1-1.1-0.1-1.8c-0.1-1.3-0.1-2.4-0.2-3.2c0-0.4,0-0.7,0-1c0-0.2,0-0.4,0-0.4c0,0,0,0.1,0.1,0.4c0,0.2,0.1,0.6,0.1,1
					c0.1,0.8,0.2,2,0.2,3.2c0,0.6,0.1,1.2,0.1,1.8c0,0.3,0,0.5-0.1,0.8c-0.1,0.2-0.2,0.5-0.4,0.6c-0.2,0.1-0.4,0.2-0.5,0.2
					c-0.2,0-0.3-0.1-0.4-0.1C94.2,78.3,94.2,78.1,94.2,78.1z"/>
			</g>
			<g>
				<path class="st20" d="M95.1,80.4c0,0-0.2,0.2-0.6,0.2c-0.4,0.1-1,0-1.6-0.3c-0.6-0.3-0.9-0.8-1-1.2c-0.1-0.4-0.1-0.6-0.1-0.6
					c0,0,0.1,0.2,0.2,0.6c0.1,0.4,0.5,0.8,1,1.1c0.5,0.3,1.1,0.3,1.4,0.3C94.9,80.4,95.1,80.3,95.1,80.4z"/>
			</g>
			<g>
				<path class="st20" d="M92.2,78.3c0,0-0.3,0-0.6,0.2c-0.3,0.2-0.4,0.4-0.4,0.4c0,0,0-0.1,0-0.2c0-0.1,0.2-0.3,0.3-0.4
					c0.2-0.1,0.4-0.1,0.5-0.1C92.2,78.2,92.3,78.3,92.2,78.3z"/>
			</g>
			<g>
				<path class="st20" d="M96.5,85.9c0,0-0.1,0.1-0.3,0.2c-0.2,0.1-0.6,0.3-1,0.4c-0.9,0.3-2.2,0.5-3.6,0.3
					c-1.4-0.2-2.6-0.8-3.4-1.3c-0.4-0.3-0.7-0.5-0.9-0.7C87,84.7,87,84.5,87,84.5c0,0,0.4,0.4,1.2,0.9c0.8,0.5,2,1.1,3.4,1.3
					c1.4,0.2,2.7,0,3.6-0.3C96,86.1,96.5,85.9,96.5,85.9z"/>
			</g>
			<g>
				<path class="st20" d="M83.4,78.2c0,0,0.2-0.1,0.4-0.5c0.1-0.2,0.1-0.4,0-0.6c-0.1-0.2-0.3-0.4-0.6-0.4c-0.2,0-0.4,0.3-0.3,0.5
					l-0.1,0.1c-0.1-0.8-0.2-1.4-0.2-1.4c0,0,0.2,0.6,0.3,1.3l0.1,0.4l-0.2-0.4c-0.2-0.3,0-0.7,0.4-0.7c0.2,0,0.3,0,0.5,0.1
					c0.1,0.1,0.2,0.2,0.3,0.4c0.1,0.3,0.1,0.5,0,0.7c-0.1,0.2-0.2,0.3-0.3,0.4C83.4,78.2,83.4,78.2,83.4,78.2z"/>
			</g>
			<g>
				<path class="st11" d="M91.3,73.4c-0.1,0-0.2-0.4-0.2-0.9c0-0.5,0.1-0.9,0.2-0.9c0.1,0,0.2,0.4,0.2,0.9
					C91.5,73,91.4,73.4,91.3,73.4z"/>
			</g>
			<g>
				<path class="st11" d="M98.6,73c-0.1,0-0.2-0.3-0.2-0.7c0-0.4,0.1-0.7,0.2-0.7c0.1,0,0.2,0.3,0.2,0.7C98.8,72.7,98.7,73,98.6,73z
					"/>
			</g>
			<path class="st5" d="M84.6,74.3c-0.2,0.6-0.4,1.2-0.1,1.8c0.2,0.6,1.1,0.8,1.5,0.3c0.1-0.2,0.1-0.5,0.1-0.7c0-1.6,0-3.3,0-4.9
				c2.4-0.4,4.4-2.3,5-4.6c1.2,0.8,2.9,0.8,4.2,0.1c0.5-0.3,1.1-0.7,1.7-0.6c0.7,0.1,1.1,0.8,1.7,1.3c1,0.7,2.7,0.3,3.2-0.9
				c0.5-1.2-0.2-2.7-1.3-3.3c-1.4-0.9-3.2-0.7-4.8-0.5c-3,0.4-6,0.7-9,1.1c-0.6,0.1-1.2,0.1-1.6,0.5c-0.5,0.4-0.7,1-0.9,1.5
				c-0.7,2.3-1,4.6-0.9,7c0,0.7,0.1,1.6,0.8,1.9"/>
			<g>
				<path class="st5" d="M92.3,70c0,0.2-0.5,0.5-1.1,0.7c-0.7,0.1-1.3,0-1.3-0.2c0-0.2,0.5-0.5,1.1-0.7C91.7,69.6,92.3,69.7,92.3,70
					z"/>
			</g>
			<g>
				<path class="st5" d="M99.5,69.9c0,0.2-0.5,0.4-1,0.4c-0.5,0-1-0.3-0.9-0.5c0-0.2,0.5-0.4,1-0.4C99.1,69.4,99.5,69.6,99.5,69.9z"
					/>
			</g>
			<g class="st21">
				<path class="st22" d="M91.8,69.1c1.8,0.2,3.1,1.7,2.9,3.5c-0.2,1.8-1.7,3.1-3.5,2.9c-1.8-0.2-3.1-1.7-2.9-3.5
					C88.4,70.2,90,68.9,91.8,69.1z"/>
			</g>
			<g class="st21">
				<path class="st22" d="M99.8,68.8c1.8,0.2,3.1,1.7,2.9,3.5c-0.2,1.8-1.7,3.1-3.5,2.9c-1.8-0.2-3.1-1.7-2.9-3.5
					C96.4,69.9,98,68.6,99.8,68.8z"/>
			</g>
			<g>
				<path class="st23" d="M96.2,72.6c0,0-0.3,0.1-0.8,0.1c-0.4,0-0.8,0-0.8-0.1c0,0,0.3-0.1,0.8-0.1C95.8,72.5,96.2,72.6,96.2,72.6z
					"/>
			</g>
			<g>
				<path class="st20" d="M107.5,137.9c0,0-0.3-0.3-0.7-0.8c-0.4-0.5-0.9-1.3-1.5-2.1c-0.6-0.9-1-1.7-1.3-2.2c-0.3-0.6-0.5-1-0.5-1
					c0,0,0.2,0.3,0.6,0.9c0.3,0.6,0.8,1.4,1.4,2.2c0.6,0.9,1.1,1.6,1.4,2.2C107.2,137.6,107.5,137.9,107.5,137.9z"/>
			</g>
			<g>
				<path class="st20" d="M106.9,137.9c0,0-0.1,0-0.3,0c-0.2,0-0.4-0.1-0.6-0.2c-0.5-0.3-1.1-0.8-1.7-1.5c-0.6-0.7-1.1-1.3-1.4-1.8
					c-0.4-0.5-0.6-0.7-0.5-0.8c0,0,0.3,0.2,0.6,0.7c0.4,0.4,0.9,1,1.5,1.7c0.6,0.7,1.1,1.2,1.6,1.5
					C106.6,137.8,106.9,137.9,106.9,137.9z"/>
			</g>
			<polyline class="st6" points="112.9,140 121.7,117.9 151,118.5 142.8,139.4 112.9,140 			"/>
			<polygon class="st24" points="123,118 114,140 142.8,139.4 151,118.5 			"/>
			<path class="st25" d="M132.4,127.7c0.8-0.8,1.9-0.9,2.6-0.3c0.6,0.6,0.5,1.8-0.3,2.6c-0.8,0.8-1.9,0.9-2.6,0.3
				C131.5,129.7,131.7,128.5,132.4,127.7z"/>
			<path class="st26" d="M131.9,127.2c1.2-1.2,3-1.4,4-0.4c1,1,0.8,2.8-0.4,4c-1.2,1.2-3,1.4-4,0.4
				C130.4,130.2,130.6,128.4,131.9,127.2z"/>
			<g class="st3">
				<path class="st4" d="M59.5,62.1c4.8-1.9,10.8,0.6,12.8,5.3c2,4.7-0.2,10.8-4.8,13c-4.6,2.2-10.8,0.2-13.2-4.4
					c-2.4-4.5-0.5-10.8,3.9-13.3"/>
			</g>
		</g>
		<g>
			<g>
				<path class="st2" d="M130.8,105.9c0.1-0.9,0.1-1.7,0.6-2.4c1-1.5,2.3-1.1,3.6-0.5c1.3,0.7,2.6,1.1,4.1,0.4c2.3-1,3.3-4.4,1.2-6
					c-0.7-0.5-1.4,0.3-1.3,1c0.1,0.9,0.6,1.9-0.2,2.7c-1.1,1.1-2.3,0.2-3.4-0.3c-1.1-0.5-2.3-0.6-3.5-0.2c-2,0.8-3.5,3.6-1.9,5.4
					C130.2,106.4,130.7,106.3,130.8,105.9L130.8,105.9z"/>
			</g>
		</g>
		<g>
			<g>
				<path class="st27" d="M135.6,71.6c0.1,1,0.6,1.8,1.1,2.6c0.4,0.5,0.8,1.3,1.4,1.5c0.7,0.2,1.2-0.1,1.7-0.5c1-0.7,2-1.4,3-2.1
					c0.4-0.3,0.6-0.8,0.3-1.3c-0.8-1.3-1.7-2.5-2.5-3.8c-0.3-0.4-0.9-0.7-1.3-0.3c-1,0.7-2.2,1.4-3.1,2.3c-0.8,0.7,0.2,1.9,1.1,1.4
					c1.1-0.5,2-1.3,3-2c-0.4-0.1-0.9-0.2-1.3-0.3c0.8,1.3,1.7,2.5,2.5,3.8c0.1-0.4,0.2-0.9,0.3-1.3c-0.6,0.4-1.1,0.8-1.7,1.2
					c-0.2,0.2-1.5,1.2-1.6,1.2c-0.2,0-0.9-1.1-1.1-1.4c-0.4-0.5-0.8-0.9-1.3-1.2C135.9,71.1,135.5,71.3,135.6,71.6L135.6,71.6z"/>
			</g>
		</g>
		<g>
			<g>
				<path class="st1" d="M123.9,83.5c-1.3,1.3-1.9,3.2-0.6,4.8c1.2,1.5,3.5,1.8,5,0.6c3.6-2.7-0.1-8.1-4-6.9
					c-0.8,0.3-0.6,1.4,0.2,1.5c1.1,0.1,2.2,0.1,3.1,0.8c0.9,0.8,0.9,2.1,0.2,3c-2,2.4-5.4-1.2-3.3-3.3
					C124.8,83.6,124.2,83.1,123.9,83.5L123.9,83.5z"/>
			</g>
		</g>
		<g>
			<g>
				<path class="st28" d="M153.7,95c-0.5,2.3-0.9,4.6-1.2,7c-0.1,0.7,0.4,1.1,1,1c2.2-0.3,4.4-0.6,6.6-1.1c0.5-0.1,0.7-0.7,0.5-1.2
					c-0.7-1.2-1.4-2.5-2.3-3.6c-0.8-1-1.7-2.3-2.9-2.8c-0.7-0.3-1.7,0.4-1.2,1.2c0.6,1,1.7,1.8,2.5,2.7c0.9,1,1.8,2.1,2.5,3.4
					c0.2-0.4,0.5-0.8,0.7-1.2c-2.3,0.2-4.5,0.6-6.8,1c0.4,0.3,0.7,0.5,1.1,0.8c0.3-2.4,0.5-4.7,0.6-7.1
					C154.8,94.5,153.8,94.4,153.7,95L153.7,95z"/>
			</g>
		</g>
		<g>
			<g>
				<path class="st29" d="M148.3,90c0.6-2.3,1-4.8,1.1-7.1c0-0.9-1.4-1.1-1.6-0.2c-0.5,2.3-0.6,4.8-0.6,7.2
					C147.2,90.4,148.1,90.6,148.3,90L148.3,90z"/>
			</g>
		</g>
		<g>
			<g>
				<path class="st29" d="M156.5,80.4C156.5,80.4,156.4,80.4,156.5,80.4c0-0.1-0.1-0.1-0.1-0.2c0-0.1-0.1-0.2-0.2-0.3
					c-0.1-0.1-0.1-0.1-0.2-0.2c0,0-0.1,0-0.1,0c-0.1,0-0.2-0.1-0.2-0.1c-0.1,0-0.3,0-0.4,0c-0.1,0-0.2,0-0.2,0.1
					c-0.1,0-0.2,0.1-0.3,0.2c-0.1,0.1-0.1,0.1-0.2,0.2c0,0.1-0.1,0.2-0.1,0.2c0,0.1,0,0.3,0,0.4c0,0.1,0,0.2,0.1,0.4
					c0,0,0,0.1,0,0.1c0,0,0,0.1,0.1,0.1c0,0,0.1,0.1,0.1,0.1c0.1,0.1,0.1,0.1,0.2,0.2c0.1,0,0.2,0.1,0.2,0.1c0,0,0,0,0,0
					c0.2,0,0.3,0,0.5,0c0.2,0,0.3-0.1,0.4-0.2c0.1-0.1,0.2-0.3,0.2-0.4C156.5,80.8,156.5,80.6,156.5,80.4L156.5,80.4z"/>
			</g>
		</g>
	</g>
</g>
</svg>
