<?xml version="1.0" encoding="utf-8"?>
<!-- Generator: Adobe Illustrator 25.2.0, SVG Export Plug-In . SVG Version: 6.00 Build 0)  -->
<svg version="1.1" id="Layer_1" xmlns="http://www.w3.org/2000/svg" xmlns:xlink="http://www.w3.org/1999/xlink" x="0px" y="0px"
	 viewBox="0 0 294.8 167.91" style="enable-background:new 0 0 294.8 167.91;" xml:space="preserve">
<style type="text/css">
	.st0{fill-rule:evenodd;clip-rule:evenodd;fill:#009640;}
	.st1{fill-rule:evenodd;clip-rule:evenodd;}
	.st2{fill-rule:evenodd;clip-rule:evenodd;fill:#E30613;}
	.st3{enable-background:new    ;}
</style>
<g>
	<path class="st0" d="M245.06,41.55c-52.19-52.73-137.3-52.73-190.12,0c-2.8,2.8-5.16,5.07-7.33,8.5l14.11,14.2
		c2.35-2.9,4.61-5.7,7.42-8.51c44.86-44.23,116.95-44.23,161.81,0c2.8,2.81,5.07,5.61,7.32,7.96l14.21-14.2
		C250.22,46.61,247.96,44.35,245.06,41.55z"/>
	<path class="st1" d="M112.28,98.8c-2.89,2.81-5.06,5.7-7.42,9.05l15.38,14.2c1.72-2.8,3.35-6.24,6.24-9.05
		c13.02-13.11,34.65-13.11,47.12,0c2.81,2.81,5.07,5.61,6.24,9.05l15.29-14.74c-2.27-3.44-4.53-5.7-6.79-8.5
		C166.73,77.82,133.27,77.82,112.28,98.8z"/>
	<path class="st2" d="M82.25,68.77c-2.89,2.81-5.16,5.61-7.42,8.51l15.83,15.83c2.35-2.81,4.61-5.7,7.42-8.5
		c28.4-28.86,75.52-28.86,104.47,0c2.26,2.26,4.52,5.16,6.78,7.96l15.92-15.83c-2.35-2.9-4.52-5.16-6.79-7.96
		C180.39,31.33,119.7,31.33,82.25,68.77z"/>
	<g class="st3">
		<path d="M13.48,151.17l-5.76,11.35H0l9.73-18.78L13.48,151.17z M10.82,141.62l3.72-7.16l14.54,28.06h-7.72L10.82,141.62z"/>
		<path d="M55.83,142.77H30.7l-3.59-5.39h28.72V142.77z M37.88,162.52H30.7v-17.95h7.18V162.52z M55.83,153.54H45.06l-5.39-5.39
			h16.16V153.54z"/>
		<path d="M68.39,137.39h17.95v5.39H68.39c-1.2,0-1.8,0.6-1.8,1.8v10.77c0,1.2,0.6,1.79,1.8,1.79h8.98v5.39h-8.98
			c-5.98,0-8.98-2.39-8.98-7.18v-10.77C59.42,139.78,62.41,137.39,68.39,137.39z M86.35,162.52h-7.18v-8.98h-5.39l-3.59-5.39h16.16
			V162.52z"/>
		<path d="M89.94,137.39h7.18v25.13h-7.18V137.39z M109.68,153.54h-7.18l-3.59-5.39h10.77v-10.77h7.18v25.13h-7.18V153.54z"/>
		<path d="M131.96,151.17l-5.76,11.35h-7.72l9.73-18.78L131.96,151.17z M129.3,141.62l3.72-7.16l14.54,28.06h-7.72L129.3,141.62z"/>
		<path d="M149.18,132l26.93,26.93v8.98l-26.93-26.93V132z M156.36,150.67v11.85h-7.18v-19.03L156.36,150.67z M168.92,149.24v-11.85
			h7.18v19.03L168.92,149.24z"/>
		<path d="M186.88,155.34c0,1.2,0.6,1.79,1.79,1.79v5.39c-5.98,0-8.98-2.39-8.98-7.18v-10.77c0-4.79,2.99-7.18,8.98-7.18h7.18v5.39
			h-7.18c-1.2,0-1.79,0.6-1.79,1.8V155.34z M197.65,162.52h-7.18v-5.39h7.18c1.2,0,1.79-0.6,1.79-1.79v-3.59h7.18v3.59
			C206.62,160.13,203.63,162.52,197.65,162.52z M199.44,144.57c0-1.2-0.6-1.8-1.79-1.8v-5.39c5.98,0,8.98,2.39,8.98,7.18v3.59h-7.18
			V144.57z"/>
		<path d="M235.34,142.77h-25.13l-3.59-5.39h28.72V142.77z M210.21,144.57h7.18v12.57h17.95v5.39h-25.13V144.57z M235.34,153.54
			h-10.77l-5.39-5.39h16.16V153.54z"/>
		<path d="M246.12,155.34h-7.18v-17.95h7.18V155.34z M238.93,157.13h25.13v5.39h-25.13V157.13z"/>
		<path d="M274.84,155.34h-7.18v-17.95h7.18V155.34z M267.66,157.13h25.13v5.39h-25.13V157.13z"/>
	</g>
</g>
</svg>
